<?xml version="1.0" encoding="UTF-8"?>
<svg width="752pt" height="752pt" version="1.1" viewBox="0 0 752 752" xmlns="http://www.w3.org/2000/svg">
 <g>
  <path d="m228.01 516.59c0 4.0898 3.3125 7.3984 7.3984 7.3984h281.19c4.0859 0 7.3984-3.3086 7.3984-7.3984l0.003906-156.97c0-4.0898-3.3125-7.3984-7.3984-7.3984-4.0859 0-7.3984 3.3086-7.3984 7.3984l-0.003907 149.57h-266.39v-266.39h147.69c4.0859 0 7.3984-3.3086 7.3984-7.3984s-3.3125-7.3984-7.3984-7.3984h-155.09c-4.0859 0-7.3984 3.3086-7.3984 7.3984z"/>
  <path d="m519.4 337.02c2.7656-1.1484 4.5664-3.8438 4.5664-6.8359l-0.015625-94.773c0-4.0898-3.3125-7.3984-7.3984-7.3984h-94.758c-2.9922 0-5.6914 1.8047-6.8359 4.5664-1.1445 2.7695-0.51172 5.9453 1.6055 8.0664l24.758 24.75-125.58 125.58c-1.3867 1.3867-2.168 3.2656-2.168 5.2305s0.78125 3.8438 2.168 5.2305l34.785 34.781c1.4453 1.4453 3.3398 2.168 5.2305 2.168 1.8945 0 3.7852-0.72266 5.2305-2.168l125.58-125.58 24.773 24.773c2.1172 2.1094 5.3047 2.7539 8.0625 1.6055zm-27.605-42.07c-2.8906-2.8906-7.5742-2.8906-10.465 0l-125.57 125.58-24.32-24.316 125.58-125.59c1.3867-1.3867 2.168-3.2656 2.168-5.2305s-0.78125-3.8438-2.168-5.2305l-17.355-17.352h69.488l0.015625 69.504z"/>
  <path d="m376.28 359.5-3.5898 3.5898c-1.4453 1.4453-1.4453 3.7852 0 5.2305 0.72266 0.72266 1.668 1.082 2.6172 1.082 0.94531 0 1.8945-0.35938 2.6172-1.082l3.5898-3.5898c1.4453-1.4453 1.4453-3.7852 0-5.2305-1.4492-1.4453-3.7891-1.4453-5.2344 0z"/>
  <path d="m360.04 375.75-16.812 16.809c-0.69531 0.69531-1.082 1.6328-1.082 2.6172s0.39062 1.9219 1.082 2.6172l6.4219 6.418c0.72266 0.72266 1.668 1.082 2.6172 1.082 0.94531 0 1.8945-0.35937 2.6172-1.082 1.4453-1.4453 1.4453-3.7852 0-5.2305l-3.8047-3.8008 14.195-14.191c1.4453-1.4453 1.4453-3.7852 0-5.2305-1.4492-1.4531-3.7891-1.4531-5.2344-0.007812z"/>
  <path d="m493.26 483.3v13.152h-48.293c-2.0469 0-3.6992 1.6562-3.6992 3.6992 0 2.0469 1.6562 3.6992 3.6992 3.6992h51.992c2.0469 0 3.6992-1.6562 3.6992-3.6992v-16.852c0-2.0469-1.6562-3.6992-3.6992-3.6992-2.043 0-3.6992 1.6523-3.6992 3.6992z"/>
  <path d="m414.23 496.45c-2.0469 0-3.6992 1.6562-3.6992 3.6992 0 2.0469 1.6562 3.6992 3.6992 3.6992h18.91c2.0469 0 3.6992-1.6562 3.6992-3.6992 0-2.0469-1.6562-3.6992-3.6992-3.6992z"/>
  <path d="m257.61 256.99h50.254c2.0469 0 3.6992-1.6562 3.6992-3.6992 0-2.0469-1.6562-3.6992-3.6992-3.6992l-53.953-0.003906c-2.0469 0-3.6992 1.6562-3.6992 3.6992v7.7031c0 2.0469 1.6562 3.6992 3.6992 3.6992 2.0469 0 3.6992-1.6562 3.6992-3.6992z"/>
  <path d="m253.91 266.24c-2.0469 0-3.6992 1.6562-3.6992 3.6992v6.7773c0 2.0469 1.6562 3.6992 3.6992 3.6992 2.0469 0 3.6992-1.6562 3.6992-3.6992v-6.7773c0-2.0469-1.6523-3.6992-3.6992-3.6992z"/>
 </g>
</svg>
